# xmcd
#
# Track frame offsets:
#	150
#	14683
#	28342
#	44751
#	60915
#	76648
#	93628
#	108569
#	121401
#	140581
#	155531
#
# Disc length: 2272 seconds
#
# Revision: 0
# Processed by: cddbd v1.5.2PL0 Copyright (c) Steve Scherf et al.
# Submitted via: FairStars CD Ripper 1.90
#
DISCID=9408de0b
DTITLE=Alabama - box set cd #3
DYEAR=2013
DGENRE=Country
TTITLE0=Song of The South
TTITLE1=High Cotton
TTITLE2=Jukebox In My Mind
TTITLE3=Forever Is As Far As I'll Go
TTITLE4=Down Home
TTITLE5=Then Again
TTITLE6=Born Country
TTITLE7=I'm In A Hurry (And Don't Know Why)
TTITLE8=Once Upon A Lifetime
TTITLE9=Hometown Honeymoon
TTITLE10=Reckless
EXTD=
EXTT0=
EXTT1=
EXTT2=
EXTT3=
EXTT4=
EXTT5=
EXTT6=
EXTT7=
EXTT8=
EXTT9=
EXTT10=
PLAYORDER=
